<?xml version="1.0" encoding="UTF-8" standalone="no"?>
<!-- Created with Inkscape (http://www.inkscape.org/) -->

<svg
   version="1.1"
   id="svg1"
   width="5000"
   height="5000"
   viewBox="0 0 5000 5000"
   sodipodi:docname="scan_icon.svg"
   inkscape:version="1.3.2 (091e20e, 2023-11-25, custom)"
   xmlns:inkscape="http://www.inkscape.org/namespaces/inkscape"
   xmlns:sodipodi="http://sodipodi.sourceforge.net/DTD/sodipodi-0.dtd"
   xmlns="http://www.w3.org/2000/svg"
   xmlns:svg="http://www.w3.org/2000/svg">
  <defs
     id="defs1" />
  <sodipodi:namedview
     id="namedview1"
     pagecolor="#ffffff"
     bordercolor="#000000"
     borderopacity="0.25"
     inkscape:showpageshadow="2"
     inkscape:pageopacity="0.0"
     inkscape:pagecheckerboard="0"
     inkscape:deskcolor="#d1d1d1"
     inkscape:zoom="0.1626"
     inkscape:cx="2500"
     inkscape:cy="2500"
     inkscape:window-width="1920"
     inkscape:window-height="1009"
     inkscape:window-x="3832"
     inkscape:window-y="-8"
     inkscape:window-maximized="1"
     inkscape:current-layer="g1" />
  <g
     inkscape:groupmode="layer"
     inkscape:label="Image"
     id="g1">
    <path
       style="fill:#000000"
       d="m 2434.5,4632.3057 c -36.5561,-1.1496 -89.7915,-4.7413 -131.5,-8.8721 -407.8646,-40.3941 -793.5083,-207.9316 -1103.5,-479.4001 -56.6996,-49.6534 -123.7461,-116.1031 -173.0464,-171.506 C 746.36461,3657.7679 576.32061,3271.1013 534.55981,2854 c -6.96923,-69.6077 -9.03985,-114.8163 -9.04582,-197.5 -0.006,-79.3942 1.52361,-116.3845 7.52462,-182 C 559.9698,2180.0322 651.35059,1898.8452 802.72793,1644.6412 932.98689,1425.9008 1107.7363,1231.102 1311.7264,1077.2439 1715.0761,773.02042 2215.0683,635.91935 2720,691.08627 c 267.2935,29.20348 523.7994,112.2873 758.4858,245.67814 115.5311,65.66549 226.8833,144.95399 326.9897,232.83339 60.2321,52.8754 130.2531,122.8925 182.7509,182.7406 267.9504,305.4669 434.7962,683.5273 478.6832,1084.6616 16.1657,147.7577 16.0073,295.4565 -0.4753,443 -56.3745,504.6353 -307.3396,969.2086 -700.4343,1296.6067 -140.2627,116.821 -297.9153,214.6293 -466,289.1083 -146.8376,65.0644 -305.6983,112.7877 -465,139.6908 -86.9456,14.6835 -165.997,22.7972 -259,26.5834 -21.5415,0.877 -116.8963,1.0902 -141.5,0.3165 z m 937.5,-556.03 c 33.4406,-5.695 58.7231,-13.9724 87.9767,-28.8033 43.6906,-22.1501 83.205,-56.9068 112.52,-98.9724 30.8982,-44.3372 50.4964,-95.71 58.1774,-152.5 1.7523,-12.9559 1.8259,-39.9613 1.8259,-670 0,-698.2512 0.2482,-660.7855 -4.5609,-688.5 -14.0626,-81.0424 -57.9078,-155.2388 -120.4391,-203.8114 -41.0511,-31.8873 -86.0476,-51.182 -138.5,-59.3892 -11.0072,-1.7223 -48.5889,-1.7994 -877,-1.7994 -703.9576,0 -867.1798,0.2421 -874.5,1.2974 -68.132,9.8212 -125.3713,39.2075 -174.0025,89.3316 -45.4731,46.8692 -76.7601,108.665 -88.0302,173.871 -5.2575,30.4186 -4.8576,-21.252 -5.2346,676.5 -0.2448,453.1308 -0.028,649.0385 0.7307,661 4.5513,71.7314 29.1554,136.0576 73.4377,192 10.2828,12.9904 35.266,37.9336 48.5989,48.5211 44.1597,35.0668 98.0264,57.3405 152,62.8515 4.7471,0.4848 389.5275,0.7938 871.5,0.6999 l 863,-0.168 z M 1564,3677 v -68 h 79 79 v 68 68 h -79 -79 z m 236,0 v -68 h 59.5 59.5 v 68 68 h -59.5 -59.5 z m 164,0 v -68 h 52.5 52.5 v 68 68 h -52.5 -52.5 z m 219,0 v -68 h 55 55 v 68 68 h -55 -55 z m 187,0 v -68 h 59.5 59.5 v 68 68 h -59.5 -59.5 z m 165,0 v -68 h 52.5 52.5 v 68 68 h -52.5 -52.5 z m 219,0 v -68 h 45 45 v 68 68 h -45 -45 z m 168,0 v -68 h 59 59 v 68 68 h -59 -59 z m 164,0 v -68 h 52.5 52.5 v 68 68 h -52.5 -52.5 z m 219,0 v -68 h 57 57 v 68 68 h -57 -57 z M 1577,3433 v -68 h 72.5 72.5 v 68 68 h -72.5 -72.5 z m 223,0 v -68 h 59.5 59.5 v 68 68 h -59.5 -59.5 z m 164,0 v -68 h 52.5 52.5 v 68 68 h -52.5 -52.5 z m 219,0 v -68 h 55 55 v 68 68 h -55 -55 z m 187,0 v -68 h 59.5 59.5 v 68 68 h -59.5 -59.5 z m 165,0 v -68 h 52.5 52.5 v 68 68 h -52.5 -52.5 z m 219,0 v -68 h 45 45 v 68 68 h -45 -45 z m 168,0 v -68 h 59 59 v 68 68 h -59 -59 z m 164,0 v -68 h 52.5 52.5 v 68 68 h -52.5 -52.5 z m 219,0 v -68 h 63.5 63.5 v 68 68 H 3368.5 3305 Z M 1657.5,2992.346 c -8.7608,-1.8705 -20.0773,-6.3523 -27.9536,-11.0707 -24.5869,-14.7292 -41.0996,-37.1928 -49.3987,-67.2015 L 1577.5,2904.5 V 2687 2469.5 l 2.672,-9.6695 c 11.2439,-40.6901 41.4654,-70.8897 78.328,-78.2713 7.3059,-1.4629 80.9672,-1.5784 849,-1.3306 l 841,0.2714 8.7966,2.7591 c 36.9083,11.5766 63.5887,41.7227 72.3438,81.7409 1.7805,8.1386 1.8596,17.5992 1.8596,222.5 v 214 l -2.1641,9.0594 c -9.7247,40.7105 -36.348,69.558 -74.8974,81.1542 -5.6795,1.7085 -42.6593,1.7938 -847.9385,1.9567 -743.731,0.1504 -842.817,-0 -849,-1.3243 z m 231,-59.2018 c 23.2281,-4.0796 41.9209,-10.1853 60.5,-19.7612 16.7456,-8.631 29.3393,-17.7316 42.045,-30.383 19.4154,-19.3324 30.6423,-39.9387 36.6297,-67.2318 2.5922,-11.8158 2.5997,-45.6362 0.013,-57.7682 -8.3462,-39.1436 -27.4889,-66.1479 -62.1876,-87.727 -20.2978,-12.6232 -40.2158,-21.4132 -76.4475,-33.7372 -40.964,-13.9337 -56.7429,-22.0258 -69.6433,-35.7161 -6.2651,-6.6487 -9.4479,-13.155 -10.1334,-20.7144 -0.9018,-9.9454 4.5637,-19.0827 16.2055,-27.0924 11.3843,-7.8326 25.7671,-11.8395 45.5187,-12.6808 29.0504,-1.2375 56.7266,5.2694 89.4366,21.027 l 15.4489,7.4424 22.5573,-40.7858 c 12.4064,-22.4321 22.5572,-41.0347 22.5572,-41.3391 0,-0.7461 -24.9869,-15.6904 -32.5,-19.4376 -47.7943,-23.8384 -114.7338,-30.7153 -167.229,-17.1799 -29.2661,7.5459 -53.7848,21.1603 -74.175,41.1868 -25.5086,25.0535 -38.096,55.0399 -38.096,90.7541 0,34.746 11.8964,63.1024 36.9306,88.0279 25.0841,24.9752 54.3047,40.9634 108.0694,59.1308 41.3676,13.9783 62.8608,27.6839 71.1563,45.3741 5.14,10.9611 4.7622,25.2504 -0.9465,35.7967 -5.9922,11.07 -21.6209,21.3192 -39.2098,25.7134 -10.9954,2.7469 -40.1848,3.8083 -54.6875,1.9885 -31.3113,-3.929 -56.0842,-14.8485 -89.2592,-39.344 -5.1957,-3.8364 -10.0798,-7.0229 -10.8535,-7.0813 -0.9015,-0.068 -9.2639,16.0583 -23.2802,44.8939 -12.0304,24.75 -21.8838,45.5369 -21.8965,46.1932 -0.032,1.6642 21.7981,15.016 37.9769,23.2272 32.7566,16.6251 60.4233,24.6222 102,29.4834 1.925,0.225 14.525,0.2434 28,0.041 18.4015,-0.2767 27.2381,-0.8493 35.5,-2.3004 z m 404.5501,-0.1775 c 19.242,-1.4782 41.9326,-4.5659 59.2943,-8.0687 15.404,-3.1077 41.3261,-10.2206 50.6696,-13.9035 2.8853,-1.1373 5.4487,-1.8651 5.6965,-1.6173 0.2478,0.2477 -1.1607,4.1685 -3.13,8.7127 -1.9693,4.5442 -3.5805,8.633 -3.5805,9.0862 0,0.4531 24.4805,0.8239 54.4012,0.8239 h 54.4012 l 28.7946,-72 28.7946,-72 h 75.1247 75.1247 l 29.1264,71.75 29.1264,71.75 101.5498,0.2547 101.5499,0.2548 0.2533,-150.5556 0.2532,-150.5556 99.5,150.5439 99.5,150.544 43.75,0.01 43.75,0.01 v -238.5092 -238.5093 l -50.25,0.2593 -50.25,0.2592 -0.5,146.0912 -0.5,146.0911 -98,-146.3069 -98,-146.307 -45,0.2158 -45,0.2158 -0.5,227.9107 -0.5,227.9108 -97.5,-231.1347 -97.5,-231.1347 -38.5695,-0.026 -38.5695,-0.026 -86.8254,204.75 c -47.754,112.6125 -87.597,206.2896 -88.5401,208.1714 l -1.7148,3.4214 -9.2527,-27.7587 c -7.638,-22.9145 -9.5384,-27.6715 -10.8903,-27.2592 -0.9007,0.2747 -8.8406,3.8692 -17.6442,7.9878 -37.9225,17.7414 -76.108,25.7093 -122.9935,25.6641 -25.6038,-0.025 -39.6564,-2.633 -56.1226,-10.4168 -12.9293,-6.1119 -20.5556,-11.5352 -30.8871,-21.9648 -32.9243,-33.2368 -47.6591,-81.3633 -42.4334,-138.5952 5.1701,-56.6231 30.113,-98.8105 69.4431,-117.4534 22.0163,-10.4359 52.1505,-14.3975 88.5,-11.6346 35.8756,2.7269 61.6439,8.5673 93.8351,21.2676 8.5451,3.3712 15.7074,5.6672 16.1758,5.1853 1.7992,-1.8512 35.0886,-84.6604 34.3127,-85.355 -1.4373,-1.2866 -33.4177,-13.693 -43.8236,-17.0007 -23.9967,-7.628 -50.8667,-13.2825 -78.5,-16.5196 -19.2131,-2.2508 -56.3832,-3.0354 -73.5,-1.5516 -60.6372,5.2565 -108.7948,27.0121 -145.5782,65.7661 -32.0652,33.7831 -51.8889,77.1078 -60.0759,131.2959 -2.0997,13.8972 -2.3374,18.8607 -2.2986,48 0.038,28.5112 0.3176,34.2796 2.2789,47 9.1582,59.3958 31.7088,105.4656 69.2737,141.5228 30.9086,29.6681 67.2705,46.7542 112.6753,52.9451 11.9542,1.63 52.8277,1.916 71.2749,0.4988 z M 2608,2688.9251 c 0,-1.3838 35.0364,-93.1716 35.9575,-94.201 0.5538,-0.6189 35.0425,92.5817 35.0425,94.6972 0,0.3183 -15.975,0.5787 -35.5,0.5787 -24.6491,0 -35.5,-0.3286 -35.5,-1.0749 z M 3431.7316,1792.25 c -0.338,-356.2385 0.2277,-326.9781 -6.8971,-356.75 -11.4362,-47.7877 -33.8017,-87.1726 -68.4283,-120.5 -35.988,-34.6377 -80.3412,-55.222 -129.2622,-59.9906 -14.5677,-1.4199 -1430.532,-1.3943 -1445.644,0.026 -50.0702,4.7065 -96.6649,26.9101 -133.0375,63.3956 -36.6457,36.7595 -59.7564,83.0723 -69.1478,138.5687 -1.6729,9.8859 -1.7933,29.3767 -2.0593,333.25 L 1576.973,2113 h 927.5315 927.5315 z M 2162.5,1597.0033 c -18.4599,-2.7943 -37.634,-14.5196 -48.9483,-29.9329 -5.2658,-7.1734 -11.3097,-19.856 -13.6932,-28.7339 -2.5475,-9.4891 -3.06,-30.4067 -0.9759,-39.8365 3.0664,-13.8748 11.1048,-29.5871 20.2859,-39.6524 5.7803,-6.3369 15.0504,-13.0715 23.3315,-16.9498 16.1351,-7.5567 -16.7147,-6.9769 378,-6.6716 l 354,0.2738 8,2.7244 c 11.9857,4.0818 19.9392,9.181 30.0369,19.2576 7.2485,7.2333 9.9496,10.7991 13.649,18.018 5.8249,11.3666 8.6177,20.4586 9.8136,31.9481 2.3716,22.7848 -4.3992,45.7362 -18.5553,62.8983 -9.6471,11.6957 -23.8764,20.9739 -38.9442,25.3937 -5.6734,1.6641 -25.1881,1.767 -358.5,1.89 -193.875,0.072 -354.75,-0.2105 -357.5,-0.6268 z"
       id="path1" />
  </g>
</svg>
